<?xml version="1.0" encoding="UTF-8"?>
<svg version="1.1" xmlns="http://www.w3.org/2000/svg" width="146" height="137">
<path d="M0 0 C48.18 0 96.36 0 146 0 C146 45.21 146 90.42 146 137 C97.82 137 49.64 137 0 137 C0 91.79 0 46.58 0 0 Z " fill="#FBFBFB" transform="translate(0,0)"/>
<path d="M0 0 C10.21836857 5.6416551 16.62707044 13.46865992 20 24.53125 C20.50779842 26.39061289 20.99674458 28.25524794 21.46484375 30.125 C22.62817408 34.57224566 24.11144103 38.92353743 26.3984375 42.92578125 C27.44178269 45.44719879 26.86295052 47.16603437 26.1484375 49.73828125 C24.1684375 50.06828125 22.1884375 50.39828125 20.1484375 50.73828125 C20.20644531 51.83527344 20.26445313 52.93226562 20.32421875 54.0625 C20.37113438 55.51688439 20.41663261 56.97131499 20.4609375 58.42578125 C20.50283203 59.14701172 20.54472656 59.86824219 20.58789062 60.61132812 C20.68431634 64.83477437 20.52233527 66.27655106 17.75390625 69.6953125 C13.41579178 73.09686252 10.06730073 73.06004922 4.6796875 73.45703125 C2.15769746 73.58960737 2.15769746 73.58960737 0.1484375 74.73828125 C-0.5115625 78.03828125 -1.1715625 81.33828125 -1.8515625 84.73828125 C-13.7315625 84.73828125 -25.6115625 84.73828125 -37.8515625 84.73828125 C-36.3665625 79.78828125 -36.3665625 79.78828125 -34.8515625 74.73828125 C-34.11230005 69.33550484 -33.54804774 64.47630093 -36.9140625 59.98828125 C-38.368125 58.87453125 -38.368125 58.87453125 -39.8515625 57.73828125 C-47.72424774 49.86559601 -51.22928976 43.07260621 -51.4765625 31.92578125 C-51.40708726 21.51518437 -48.08248543 13.90593722 -40.9765625 6.23828125 C-29.4831298 -4.33392211 -14.18377871 -6.09593395 0 0 Z " fill="#060707" transform="translate(92.8515625,5.26171875)"/>
<path d="M0 0 C2.25 -0.375 2.25 -0.375 5 0 C8.03212341 3.60576837 9 5.22946208 9 10 C7.68 10 6.36 10 5 10 C5 11.98 5 13.96 5 16 C3.68 16 2.36 16 1 16 C1 14.02 1 12.04 1 10 C-0.98 10 -2.96 10 -5 10 C-4.979375 10.804375 -4.95875 11.60875 -4.9375 12.4375 C-5 15 -5 15 -6 16 C-7.99958364 16.04080783 -10.00045254 16.04254356 -12 16 C-12 17.32 -12 18.64 -12 20 C-10.35 20 -8.7 20 -7 20 C-7 22.31 -7 24.62 -7 27 C-9.64 27 -12.28 27 -15 27 C-15 28.65 -15 30.3 -15 32 C-15.99 31.67 -16.98 31.34 -18 31 C-18.6875 28.9375 -18.6875 28.9375 -19 27 C-21.31 26.67 -23.62 26.34 -26 26 C-26 24.35 -26 22.7 -26 21 C-24.35 21 -22.7 21 -21 21 C-21 19.35 -21 17.7 -21 16 C-22.65 16 -24.3 16 -26 16 C-26 13.69 -26 11.38 -26 9 C-27.98 9 -29.96 9 -32 9 C-32 10.32 -32 11.64 -32 13 C-33.65 12.67 -35.3 12.34 -37 12 C-35.56590028 8.64138305 -33.80630679 6.64125061 -31.0625 4.25 C-30.37285156 3.63640625 -29.68320312 3.0228125 -28.97265625 2.390625 C-27 1 -27 1 -24 1 C-24 3.31 -24 5.62 -24 8 C-22.35 8 -20.7 8 -19 8 C-19 6.35 -19 4.7 -19 3 C-16.36 3 -13.72 3 -11 3 C-11 4.65 -11 6.3 -11 8 C-9.35 8 -7.7 8 -6 8 C-6 6.02 -6 4.04 -6 2 C-2.25 0.875 -2.25 0.875 0 2 C0 1.34 0 0.68 0 0 Z " fill="#E08614" transform="translate(89,11)"/>
<path d="M0 0 C2.25 -0.375 2.25 -0.375 5 0 C8.03212341 3.60576837 9 5.22946208 9 10 C7.68 10 6.36 10 5 10 C5 11.98 5 13.96 5 16 C3.68 16 2.36 16 1 16 C1 14.02 1 12.04 1 10 C-0.98 10 -2.96 10 -5 10 C-5 11.65 -5 13.3 -5 15 C-6.65 15.33 -8.3 15.66 -10 16 C-9.01 15.34 -8.02 14.68 -7 14 C-6.27034634 11.43717258 -6.27034634 11.43717258 -6 9 C-8.31 9 -10.62 9 -13 9 C-13 7.35 -13 5.7 -13 4 C-14.32 4 -15.64 4 -17 4 C-16.979375 4.804375 -16.95875 5.60875 -16.9375 6.4375 C-17 9 -17 9 -18 10 C-20.33297433 10.04092937 -22.66705225 10.04241723 -25 10 C-25 11.65 -25 13.3 -25 15 C-23.35 15 -21.7 15 -20 15 C-20 16.65 -20 18.3 -20 20 C-20.33 18.68 -20.66 17.36 -21 16 C-22.65 16 -24.3 16 -26 16 C-26 13.69 -26 11.38 -26 9 C-27.98 9 -29.96 9 -32 9 C-32 10.32 -32 11.64 -32 13 C-33.65 12.67 -35.3 12.34 -37 12 C-35.56590028 8.64138305 -33.80630679 6.64125061 -31.0625 4.25 C-30.37285156 3.63640625 -29.68320312 3.0228125 -28.97265625 2.390625 C-27 1 -27 1 -24 1 C-24 3.31 -24 5.62 -24 8 C-22.35 8 -20.7 8 -19 8 C-19 6.35 -19 4.7 -19 3 C-16.36 3 -13.72 3 -11 3 C-11 4.65 -11 6.3 -11 8 C-9.35 8 -7.7 8 -6 8 C-6 6.02 -6 4.04 -6 2 C-2.25 0.875 -2.25 0.875 0 2 C0 1.34 0 0.68 0 0 Z " fill="#373927" transform="translate(89,11)"/>
<path d="M0 0 C1.98 0 3.96 0 6 0 C6 2.31 6 4.62 6 7 C7.65 7 9.3 7 11 7 C11 8.32 11 9.64 11 11 C9.02 11 7.04 11 5 11 C5 12.98 5 14.96 5 17 C3.02 17 1.04 17 -1 17 C-1 15.35 -1 13.7 -1 12 C-2.65 12 -4.3 12 -6 12 C-6 13.65 -6 15.3 -6 17 C-6.99 17 -7.98 17 -9 17 C-8.88541307 15.56163249 -8.75790884 14.12429034 -8.625 12.6875 C-8.55539063 11.88699219 -8.48578125 11.08648437 -8.4140625 10.26171875 C-8 8 -8 8 -6 5 C-3.375 4.3125 -3.375 4.3125 -1 4 C-0.67 2.68 -0.34 1.36 0 0 Z " fill="#00A5E1" transform="translate(57,20)"/>
<path d="M0 0 C0.76441406 -0.00773437 1.52882813 -0.01546875 2.31640625 -0.0234375 C4.4375 0.375 4.4375 0.375 6.21484375 1.4609375 C7.4375 3.375 7.4375 3.375 7.4375 10.375 C2.8175 10.375 -1.8025 10.375 -6.5625 10.375 C-4.27592943 15.47721948 -4.27592943 15.47721948 -1.08203125 16.08203125 C-0.18871094 16.11683594 0.70460938 16.15164062 1.625 16.1875 C2.52605469 16.23519531 3.42710938 16.28289062 4.35546875 16.33203125 C5.04253906 16.34621094 5.72960938 16.36039063 6.4375 16.375 C6.4375 17.035 6.4375 17.695 6.4375 18.375 C-3.46164663 19.14303724 -3.46164663 19.14303724 -7.25 16.5 C-9.05176505 12.21008321 -9.61737177 7.95128196 -8.5625 3.375 C-5.87256232 0.6309025 -3.79290089 -0.03850661 0 0 Z " fill="#606060" transform="translate(41.5625,109.625)"/>
<path d="M0 0 C1.16015625 0.02900391 1.16015625 0.02900391 2.34375 0.05859375 C3.1171875 0.05988281 3.890625 0.06117187 4.6875 0.0625 C7.34807659 0.59750725 8.26308604 1.30825411 9.84375 3.49609375 C10.03125 7.18359375 10.03125 7.18359375 9.84375 10.49609375 C5.55375 10.49609375 1.26375 10.49609375 -3.15625 10.49609375 C-2.49625 12.14609375 -1.83625 13.79609375 -1.15625 15.49609375 C2.47375 15.82609375 6.10375 16.15609375 9.84375 16.49609375 C9.84375 17.15609375 9.84375 17.81609375 9.84375 18.49609375 C7.90747231 18.60416506 5.96947244 18.68171625 4.03125 18.74609375 C2.41283203 18.81570312 2.41283203 18.81570312 0.76171875 18.88671875 C-2.15625 18.49609375 -2.15625 18.49609375 -4.01953125 16.79296875 C-5.32242258 14.16032236 -5.55802604 12.42360745 -5.53125 9.49609375 C-5.53898437 8.65046875 -5.54671875 7.80484375 -5.5546875 6.93359375 C-4.9540115 3.25886997 -3.77920955 0.86949205 0 0 Z " fill="#4A4A4A" transform="translate(68.15625,109.50390625)"/>
<path d="M0 0 C1.98 0 3.96 0 6 0 C6 1.98 6 3.96 6 6 C7.98491642 5.73323796 7.98491642 5.73323796 10 5 C10.33 4.01 10.66 3.02 11 2 C12.32 2 13.64 2 15 2 C15 4.6875 15 4.6875 14 8 C9.71863433 11.75924791 4.24509772 13.92381549 -1 16 C-1 13.69 -1 11.38 -1 9 C-2.65 9 -4.3 9 -6 9 C-6 8.01 -6 7.02 -6 6 C-4.35 5.67 -2.7 5.34 -1 5 C-0.67 3.35 -0.34 1.7 0 0 Z " fill="#00A8E5" transform="translate(84,21)"/>
<path d="M0 0 C0.71929687 0.00064453 1.43859375 0.00128906 2.1796875 0.00195312 C7.46803571 0.04651786 7.46803571 0.04651786 9.75 1.1875 C9.75 2.1775 9.75 3.1675 9.75 4.1875 C8.1 4.1875 6.45 4.1875 4.75 4.1875 C4.42 6.1675 4.09 8.1475 3.75 10.1875 C2.1 10.1875 0.45 10.1875 -1.25 10.1875 C-1.25 8.5375 -1.25 6.8875 -1.25 5.1875 C-3.89 5.1875 -6.53 5.1875 -9.25 5.1875 C-9.25 6.8375 -9.25 8.4875 -9.25 10.1875 C-10.9 10.1875 -12.55 10.1875 -14.25 10.1875 C-14.25 7.5475 -14.25 4.9075 -14.25 2.1875 C-9.32867546 0.22980329 -5.2005814 -0.09048631 0 0 Z " fill="#00A3DE" transform="translate(79.25,8.8125)"/>
<path d="M0 0 C0.99 0 1.98 0 3 0 C3 1.65 3 3.3 3 5 C5.64 5 8.28 5 11 5 C11 6.65 11 8.3 11 10 C9.35 10.33 7.7 10.66 6 11 C6 12.65 6 14.3 6 16 C6.99 16 7.98 16 9 16 C9 16.66 9 17.32 9 18 C6.375 18.4375 6.375 18.4375 3 18 C-0.66581684 15.09262802 -2.72362861 12.08574474 -3.875 7.5625 C-3.91625 6.716875 -3.9575 5.87125 -4 5 C-2.68 5 -1.36 5 0 5 C0 3.35 0 1.7 0 0 Z " fill="#E18614" transform="translate(52,33)"/>
<path d="M0 0 C1.17046875 0.03609375 2.3409375 0.0721875 3.546875 0.109375 C4.43890625 0.15578125 5.3309375 0.2021875 6.25 0.25 C6.58 0.91 6.91 1.57 7.25 2.25 C5.85974609 2.34087891 5.85974609 2.34087891 4.44140625 2.43359375 C3.24386719 2.51738281 2.04632813 2.60117188 0.8125 2.6875 C-0.38246094 2.76871094 -1.57742187 2.84992188 -2.80859375 2.93359375 C-5.63570244 2.92656114 -5.63570244 2.92656114 -6.75 4.25 C-7.11760731 6.57817964 -7.45241581 8.9118385 -7.75 11.25 C-6.28626953 11.30607422 -6.28626953 11.30607422 -4.79296875 11.36328125 C-3.52066406 11.42902344 -2.24835937 11.49476562 -0.9375 11.5625 C0.32707031 11.62050781 1.59164063 11.67851563 2.89453125 11.73828125 C6.25 12.25 6.25 12.25 8.171875 13.609375 C9.90662378 16.2492101 9.68845752 18.18079734 9.25 21.25 C7.67578125 23.42578125 7.67578125 23.42578125 5.25 25.25 C1.796875 25.640625 1.796875 25.640625 -2 25.5 C-3.26328125 25.46390625 -4.5265625 25.4278125 -5.828125 25.390625 C-7.27445313 25.32101563 -7.27445313 25.32101563 -8.75 25.25 C-8.75 24.59 -8.75 23.93 -8.75 23.25 C-7.37714844 23.17652344 -7.37714844 23.17652344 -5.9765625 23.1015625 C-4.78804687 23.02679688 -3.59953125 22.95203125 -2.375 22.875 C-0.59996094 22.77058594 -0.59996094 22.77058594 1.2109375 22.6640625 C4.35562319 22.54782654 4.35562319 22.54782654 6.25 20.25 C6.41687448 17.66645782 6.41687448 17.66645782 6.25 15.25 C5.35796875 15.22421875 4.4659375 15.1984375 3.546875 15.171875 C1.79117187 15.08679688 1.79117187 15.08679688 0 15 C-1.16015625 14.95359375 -2.3203125 14.9071875 -3.515625 14.859375 C-7.25929185 14.15404646 -8.48576842 13.26164783 -10.75 10.25 C-11.25 7.25 -11.25 7.25 -10.75 4.25 C-7.58372147 -0.02293898 -5.16678048 -0.20667122 0 0 Z " fill="#3D3D3D" transform="translate(19.75,102.75)"/>
<path d="M0 0 C1.65 0 3.3 0 5 0 C5.2475 0.804375 5.495 1.60875 5.75 2.4375 C6.72238859 5.171081 6.72238859 5.171081 9.125 5.8125 C10.053125 5.9053125 10.053125 5.9053125 11 6 C11 4.35 11 2.7 11 1 C12.65 1 14.3 1 16 1 C12.50552498 6.64597533 9.25209678 9.92451895 3.1484375 12.6015625 C0.4049355 13.11035742 -0.66894594 12.44584366 -3 11 C-3.66 10.67 -4.32 10.34 -5 10 C-5 9.01 -5 8.02 -5 7 C-3.68 6.67 -2.36 6.34 -1 6 C-0.67 4.02 -0.34 2.04 0 0 Z " fill="#00A7E3" transform="translate(64,38)"/>
<path d="M0 0 C0.66 0 1.32 0 2 0 C4.31 4.62 6.62 9.24 9 14 C10.65 9.38 12.3 4.76 14 0 C14.99 0 15.98 0 17 0 C15.34126427 5.4369671 13.39110019 10.65946528 11.125 15.875 C10.41730469 17.51082031 10.41730469 17.51082031 9.6953125 19.1796875 C7.81825146 22.30235587 6.24088902 23.42899278 3 25 C3.309375 24.443125 3.61875 23.88625 3.9375 23.3125 C5.8491776 19.15178992 6.33833192 16.96930463 4.78515625 12.51953125 C4.22430094 11.27773161 3.64966524 10.04207798 3.0625 8.8125 C0 2.19179601 0 2.19179601 0 0 Z " fill="#373737" transform="translate(119,110)"/>
<path d="M0 0 C3.06204329 0.33103171 4.60050904 0.60050904 6.8125 2.8125 C8 5 8 5 8 9 C6.68 9 5.36 9 4 9 C4 10.65 4 12.3 4 14 C3.01 14 2.02 14 1 14 C1 12.02 1 10.04 1 8 C-1.97 7.505 -1.97 7.505 -5 7 C-5 5.35 -5 3.7 -5 2 C-3.35 2 -1.7 2 0 2 C0 1.34 0 0.68 0 0 Z " fill="#DF8515" transform="translate(90,12)"/>
<path d="M0 0 C12.32337884 -0.36604096 12.32337884 -0.36604096 14.90625 1.03125 C16.62218697 4.11993655 16.31239868 7.25758998 16.1875 10.6875 C16.16719727 11.7403418 16.16719727 11.7403418 16.14648438 12.81445312 C16.11120182 14.54329829 16.05739583 16.27174765 16 18 C15.34 18 14.68 18 14 18 C13.67 13.05 13.34 8.1 13 3 C9.37 3 5.74 3 2 3 C2 7.95 2 12.9 2 18 C1.34 18 0.68 18 0 18 C0 12.06 0 6.12 0 0 Z " fill="#3B3B3B" transform="translate(83,110)"/>
<path d="M0 0 C1.65 0 3.3 0 5 0 C5.33 0.66 5.66 1.32 6 2 C3.525 1.505 3.525 1.505 1 1 C1 1.66 1 2.32 1 3 C-0.65 3 -2.3 3 -4 3 C-4 4.65 -4 6.3 -4 8 C-1.03 8.495 -1.03 8.495 2 9 C2 10.98 2 12.96 2 15 C2.99 15.33 3.98 15.66 5 16 C3.68 16 2.36 16 1 16 C1 14.02 1 12.04 1 10 C-0.98 10 -2.96 10 -5 10 C-5 11.65 -5 13.3 -5 15 C-6.65 15.33 -8.3 15.66 -10 16 C-9.01 15.34 -8.02 14.68 -7 14 C-6.27034634 11.43717258 -6.27034634 11.43717258 -6 9 C-7.98 9 -9.96 9 -12 9 C-12 7.02 -12 5.04 -12 3 C-11.67 3 -11.34 3 -11 3 C-11 4.65 -11 6.3 -11 8 C-9.35 8 -7.7 8 -6 8 C-6 6.02 -6 4.04 -6 2 C-2.25 0.875 -2.25 0.875 0 2 C0 1.34 0 0.68 0 0 Z " fill="#0D3541" transform="translate(89,11)"/>
<path d="M0 0 C1.91015625 0.23046875 1.91015625 0.23046875 3.91015625 2.23046875 C3.91015625 3.55046875 3.91015625 4.87046875 3.91015625 6.23046875 C-0.04984375 6.23046875 -4.00984375 6.23046875 -8.08984375 6.23046875 C-6.72426539 -0.59742304 -6.56386772 0.1310391 0 0 Z " fill="#E4E4E4" transform="translate(43.08984375,111.76953125)"/>
<path d="M0 0 C0.721875 0.00257812 1.44375 0.00515625 2.1875 0.0078125 C2.909375 0.00523438 3.63125 0.00265625 4.375 0 C6.1875 0.1328125 6.1875 0.1328125 7.1875 1.1328125 C7.1875 2.7828125 7.1875 4.4328125 7.1875 6.1328125 C3.2275 6.1328125 -0.7325 6.1328125 -4.8125 6.1328125 C-2.43061723 0.17810557 -2.43061723 0.17810557 0 0 Z " fill="#E6E6E6" transform="translate(68.8125,111.8671875)"/>
<path d="M0 0 C0.66 0 1.32 0 2 0 C2 0.99 2 1.98 2 3 C3.32 3.33 4.64 3.66 6 4 C4.68 4 3.36 4 2 4 C2.33 8.62 2.66 13.24 3 18 C3.99 18.33 4.98 18.66 6 19 C6 19.66 6 20.32 6 21 C1.125 20.125 1.125 20.125 0 19 C-0.08651611 17.58429877 -0.10704904 16.164405 -0.09765625 14.74609375 C-0.09443359 13.89208984 -0.09121094 13.03808594 -0.08789062 12.15820312 C-0.07951172 11.26037109 -0.07113281 10.36253906 -0.0625 9.4375 C-0.05798828 8.53580078 -0.05347656 7.63410156 -0.04882812 6.70507812 C-0.03700225 4.46998686 -0.0205222 2.23502563 0 0 Z " fill="#4B4B4B" transform="translate(111,107)"/>
<path d="M0 0 C1.17046875 0.03609375 2.3409375 0.0721875 3.546875 0.109375 C4.43890625 0.15578125 5.3309375 0.2021875 6.25 0.25 C6.58 0.91 6.91 1.57 7.25 2.25 C0.815 2.745 0.815 2.745 -5.75 3.25 C-6.41 5.56 -7.07 7.87 -7.75 10.25 C-8.74 10.25 -9.73 10.25 -10.75 10.25 C-11.0633234 6.80344261 -11.23356435 4.91371577 -9.15625 2.0625 C-5.95323037 -0.35016414 -3.96220722 -0.15848829 0 0 Z " fill="#616161" transform="translate(19.75,102.75)"/>
<path d="M0 0 C0 1.65 0 3.3 0 5 C-2.31 5.33 -4.62 5.66 -7 6 C-7.33 7.65 -7.66 9.3 -8 11 C-9.32 10.67 -10.64 10.34 -12 10 C-10.63746417 6.88175879 -9.14891747 4.95262649 -6.5625 2.75 C-5.66724609 1.96882812 -5.66724609 1.96882812 -4.75390625 1.171875 C-3 0 -3 0 0 0 Z " fill="#DE8414" transform="translate(64,13)"/>
<path d="M0 0 C2.31 0 4.62 0 7 0 C6.35546875 0.33644531 5.7109375 0.67289062 5.046875 1.01953125 C2.09909105 3.87168099 2.32976307 6.80448867 2.25 10.6875 C2.22035156 11.38939453 2.19070312 12.09128906 2.16015625 12.81445312 C2.08962967 14.54235424 2.04252932 16.2711832 2 18 C1.34 18 0.68 18 0 18 C0 12.06 0 6.12 0 0 Z " fill="#575757" transform="translate(53,110)"/>
<path d="M0 0 C0.99 0 1.98 0 3 0 C1.25192871 5.46737191 -0.65794081 10.75824848 -3 16 C-3.99 15.67 -4.98 15.34 -6 15 C-5.65066406 14.16855469 -5.30132812 13.33710937 -4.94140625 12.48046875 C-4.25884766 10.85044922 -4.25884766 10.85044922 -3.5625 9.1875 C-3.11003906 8.10855469 -2.65757812 7.02960938 -2.19140625 5.91796875 C-1.39624987 3.9704874 -0.66520352 1.99561057 0 0 Z " fill="#606060" transform="translate(133,110)"/>
<path d="M0 0 C0.66 0.33 1.32 0.66 2 1 C1 4 1 4 -1 5 C-3.37402501 5.07116382 -5.75000677 5.08409085 -8.125 5.0625 C-9.40632813 5.05347656 -10.68765625 5.04445312 -12.0078125 5.03515625 C-13.48894531 5.01775391 -13.48894531 5.01775391 -15 5 C-15 4.34 -15 3.68 -15 3 C-13.62714844 2.92652344 -13.62714844 2.92652344 -12.2265625 2.8515625 C-11.03804687 2.77679688 -9.84953125 2.70203125 -8.625 2.625 C-7.44164062 2.55539063 -6.25828125 2.48578125 -5.0390625 2.4140625 C-1.89437681 2.29782654 -1.89437681 2.29782654 0 0 Z " fill="#5D5D5D" transform="translate(26,123)"/>
<path d="M0 0 C3.375 -0.125 3.375 -0.125 7 0 C9 2 9 2 9 9 C4.38 9 -0.24 9 -5 9 C-5 8.67 -5 8.34 -5 8 C-0.71 8 3.58 8 8 8 C7.34 6.35 6.68 4.7 6 3 C2.97017694 1.62810173 2.97017694 1.62810173 0 1 C0 0.67 0 0.34 0 0 Z " fill="#282828" transform="translate(39,110)"/>
<path d="M0 0 C1.65 0 3.3 0 5 0 C5.33 0.66 5.66 1.32 6 2 C4.35 1.67 2.7 1.34 1 1 C1 1.66 1 2.32 1 3 C-0.65 3 -2.3 3 -4 3 C-4 4.65 -4 6.3 -4 8 C-2.68 8.33 -1.36 8.66 0 9 C-1.65 9 -3.3 9 -5 9 C-5.33 6.69 -5.66 4.38 -6 2 C-2.25 0.875 -2.25 0.875 0 2 C0 1.34 0 0.68 0 0 Z " fill="#4D3F1E" transform="translate(89,11)"/>
<path d="M0 0 C2.62506802 -0.02690844 5.24986173 -0.04679404 7.875 -0.0625 C8.62136719 -0.07087891 9.36773437 -0.07925781 10.13671875 -0.08789062 C15.7734375 -0.11328125 15.7734375 -0.11328125 18 1 C18 1.99 18 2.98 18 4 C15.525 3.505 15.525 3.505 13 3 C13 2.67 13 2.34 13 2 C8.71 1.67 4.42 1.34 0 1 C0 0.67 0 0.34 0 0 Z " fill="#0079A5" transform="translate(71,9)"/>
<path d="M0 0 C0.33 1.32 0.66 2.64 1 4 C1.99 4 2.98 4 4 4 C4 4.66 4 5.32 4 6 C2.02 6 0.04 6 -2 6 C-2.33 5.34 -2.66 4.68 -3 4 C-2.34 4 -1.68 4 -1 4 C-0.67 2.68 -0.34 1.36 0 0 Z " fill="#975D11" transform="translate(57,45)"/>
<path d="M0 0 C1.33332095 2.6666419 0.67102033 4.16680303 0 7 C-1.32 6.67 -2.64 6.34 -4 6 C-2.84826645 3.53199953 -1.95216435 1.95216435 0 0 Z " fill="#B26A0F" transform="translate(56,17)"/>
<path d="M0 0 C1.65 0 3.3 0 5 0 C3.69593116 2.01920337 2.36176581 4.01924973 1 6 C0.67 6 0.34 6 0 6 C0 4.02 0 2.04 0 0 Z " fill="#0089BB" transform="translate(75,39)"/>
</svg>
